<?xml version="1.0" standalone="no"?>
<!DOCTYPE svg PUBLIC "-//W3C//DTD SVG 20010904//EN"
 "http://www.w3.org/TR/2001/REC-SVG-20010904/DTD/svg10.dtd">
<svg version="1.0" xmlns="http://www.w3.org/2000/svg"
 width="357.000000pt" height="336.000000pt" viewBox="0 0 357.000000 336.000000"
 preserveAspectRatio="xMidYMid meet">

<g transform="translate(0.000000,336.000000) scale(0.100000,-0.100000)"
fill="#000000" stroke="none">
<path d="M1697 3063 c-3 -6 20 -166 32 -220 1 -2 8 -3 16 -3 16 0 14 28 -9
159 -11 59 -27 85 -39 64z"/>
<path d="M1845 3048 c-13 -56 -32 -198 -27 -203 20 -19 30 3 41 88 7 50 15
102 18 115 4 16 1 22 -11 22 -8 0 -18 -10 -21 -22z"/>
<path d="M1556 3031 c-9 -13 86 -211 101 -211 20 0 17 9 -34 119 -44 97 -55
112 -67 92z"/>
<path d="M1950 2928 c-45 -91 -56 -129 -31 -102 18 18 99 204 90 204 -5 0 -32
-46 -59 -102z"/>
<path d="M1770 2920 c0 -64 3 -80 15 -80 12 0 15 16 15 80 0 64 -3 80 -15 80
-12 0 -15 -16 -15 -80z"/>
<path d="M1640 2983 c0 -15 42 -137 50 -147 5 -4 13 -6 18 -2 15 9 -33 150
-52 154 -9 2 -16 0 -16 -5z"/>
<path d="M1880 2924 c-24 -77 -25 -94 -7 -94 8 0 21 26 32 63 9 34 20 70 22
80 4 11 0 17 -10 17 -11 0 -23 -21 -37 -66z"/>
<path d="M1420 2962 c0 -12 148 -177 160 -177 22 0 10 20 -61 101 -64 74 -99
101 -99 76z"/>
<path d="M2047 2880 c-42 -49 -77 -92 -77 -95 0 -3 6 -5 14 -5 14 0 166 166
166 182 0 25 -35 -2 -103 -82z"/>
<path d="M1526 2942 c-6 -11 81 -142 94 -142 19 0 10 24 -31 87 -40 61 -52 72
-63 55z"/>
<path d="M1982 2887 c-44 -66 -51 -87 -29 -87 16 0 100 128 92 140 -11 18 -21
10 -63 -53z"/>
<path d="M1316 2871 c-4 -6 38 -40 95 -76 55 -37 99 -69 96 -71 -3 -3 -37 11
-77 31 -48 24 -76 33 -83 26 -6 -6 17 -23 70 -49 l79 -40 22 25 c13 14 21 26
20 27 -2 1 -44 30 -95 64 -104 70 -118 78 -127 63z"/>
<path d="M1426 2871 c-6 -9 113 -121 128 -121 21 0 -2 35 -53 79 -62 54 -67
56 -75 42z"/>
<path d="M2061 2821 c-45 -40 -60 -59 -50 -63 16 -6 139 91 135 106 -5 22 -24
12 -85 -43z"/>
<path d="M2138 2815 c-101 -67 -115 -80 -98 -90 13 -8 222 133 215 145 -10 16
-15 13 -117 -55z"/>
<path d="M2133 2752 c-40 -20 -73 -42 -73 -49 0 -18 1 -18 91 27 44 22 77 45
74 50 -9 14 -12 13 -92 -28z"/>
<path d="M1247 2764 c-15 -16 -2 -23 111 -63 132 -45 144 -48 136 -26 -4 8
-11 15 -18 15 -9 0 -161 54 -207 74 -8 4 -18 3 -22 0z"/>
<path d="M2210 2729 c-58 -21 -111 -39 -119 -39 -9 0 -11 -8 -6 -27 9 -39 17
-45 51 -34 16 6 55 15 87 21 53 11 69 22 49 34 -5 3 -42 -4 -83 -14 -135 -36
-119 -19 34 35 99 35 119 47 100 58 -5 3 -55 -13 -113 -34z"/>
<path d="M1300 2676 c0 -9 12 -18 28 -22 15 -3 50 -12 77 -20 l50 -14 -60 5
c-33 3 -90 8 -127 12 -58 5 -68 4 -68 -10 0 -12 16 -17 68 -22 180 -18 136
-23 -205 -24 -356 -1 -363 -1 -363 -21 0 -15 7 -20 28 -20 15 0 38 -7 50 -16
l22 -15 0 -824 0 -823 26 -31 c14 -17 21 -31 14 -31 -6 0 -93 30 -193 66 -419
153 -482 175 -501 172 -38 -5 -28 -42 52 -188 44 -80 78 -148 76 -151 -2 -3
-42 -21 -89 -39 -129 -48 -127 -62 20 -128 50 -22 121 -54 158 -72 l68 -31
-30 -52 c-22 -39 -27 -56 -20 -69 19 -35 459 -159 696 -197 70 -12 152 -26
182 -31 31 -6 257 -10 528 -10 376 0 493 3 571 15 288 46 576 124 795 215 84
35 82 32 62 96 -6 19 7 26 122 77 114 50 129 59 134 84 9 44 -6 60 -76 83 -36
12 -65 25 -65 28 1 4 33 67 73 140 60 109 72 139 69 167 -3 23 -10 35 -19 35
-8 0 -139 -45 -292 -101 -553 -202 -499 -175 -480 -238 7 -22 9 -44 6 -47 -8
-9 -121 -32 -267 -55 -511 -80 -989 -76 -1441 12 -85 17 -86 18 -66 82 9 29
17 65 17 78 l0 24 391 -3 c369 -3 395 -4 439 -23 l48 -21 40 21 c39 20 57 21
449 21 373 1 411 2 448 19 22 10 51 31 65 45 l25 28 3 844 2 844 35 0 c28 0
35 4 35 20 0 20 -7 20 -392 21 -372 1 -428 7 -230 24 60 5 82 11 82 21 0 17
-1 17 -115 4 -135 -16 -155 -20 -155 -33 0 -9 -76 -12 -316 -12 l-315 0 6 31
5 31 -73 16 c-40 9 -80 19 -90 23 -12 4 -17 1 -17 -10z m-181 -173 c-8 -9 -15
-39 -15 -67 -1 -42 -84 -372 -101 -398 -2 -5 -38 -8 -79 -8 l-74 0 0 245 0
245 141 0 c130 0 140 -1 128 -17z m285 1 c8 -20 -2 -54 -15 -54 -5 0 -9 11 -9
25 0 14 -4 25 -10 25 -5 0 -10 -13 -10 -30 0 -16 -5 -30 -10 -30 -6 0 -9 12
-8 26 2 15 -3 29 -9 31 -9 3 -13 -6 -13 -28 0 -18 -3 -29 -7 -25 -4 4 -8 16
-8 26 0 11 -4 20 -10 20 -5 0 -10 -9 -10 -20 0 -10 -4 -22 -8 -26 -4 -4 -7 7
-7 25 0 22 -4 31 -12 28 -7 -2 -13 -13 -13 -25 0 -11 -4 -24 -8 -28 -4 -4 -7
7 -7 24 0 18 -4 32 -10 32 -5 0 -10 -13 -10 -30 0 -16 -4 -30 -10 -30 -5 0
-10 14 -10 30 0 17 -4 30 -10 30 -5 0 -10 -15 -10 -32 l-1 -33 -18 22 c-11 13
-17 31 -14 43 5 19 14 20 133 20 109 0 129 -2 134 -16z m1386 -344 l0 -360
-445 0 -445 0 -2 348 -3 347 -72 3 -73 3 0 -236 0 -235 -99 0 -99 0 -22 73
c-43 142 -91 340 -87 358 3 10 -2 27 -10 38 l-14 21 685 0 686 0 0 -360z
m-930 -40 l0 -350 460 0 460 0 0 -50 0 -50 -965 0 -965 0 0 50 0 50 465 0 465
0 0 350 0 350 40 0 40 0 0 -350z m-665 285 c0 -5 -15 -11 -32 -13 -25 -3 -33
1 -33 13 0 12 8 16 33 13 17 -2 32 -7 32 -13z m20 -96 c-19 -132 -54 -279 -67
-279 -5 0 -7 8 -4 18 14 45 55 243 62 297 3 33 9 64 11 68 13 22 12 -9 -2
-104z m83 91 c3 -12 2 -12 -8 -3 -7 6 -19 9 -28 6 -10 -4 -13 -2 -8 6 10 16
38 10 44 -9z m78 -190 c14 -74 29 -146 31 -160 4 -19 3 -22 -6 -14 -14 13 -60
242 -66 328 -4 55 -3 57 5 21 5 -22 21 -101 36 -175z m52 193 c2 -9 -8 -13
-32 -13 -26 0 -36 4 -36 16 0 19 61 16 68 -3z m-238 -43 c0 -16 -7 -20 -35
-20 -28 0 -35 4 -35 20 0 16 7 20 35 20 28 0 35 -4 35 -20z m119 -5 c3 -19 3
-19 -17 -2 -19 18 -21 18 -30 0 -13 -22 -25 -13 -16 11 9 24 58 17 63 -9z
m121 21 c0 -2 3 -11 6 -20 5 -13 -1 -16 -30 -16 -29 0 -36 4 -36 20 0 16 7 20
30 20 17 0 30 -2 30 -4z m-250 -66 c0 -17 -7 -20 -39 -20 -34 0 -38 3 -34 20
4 15 14 20 39 20 27 0 34 -4 34 -20z m134 4 c9 -24 1 -27 -24 -12 -18 10 -24
10 -27 1 -3 -7 -11 -13 -19 -13 -12 0 -12 4 -4 20 13 25 65 27 74 4z m134 -6
c3 -14 -4 -18 -32 -18 -36 0 -52 12 -41 31 11 17 69 6 73 -13z m-278 -52 c0
-35 -13 -46 -51 -46 -44 0 -43 -1 -29 34 8 21 16 26 45 26 24 0 35 -5 35 -14z
m136 6 c6 -4 14 -17 18 -29 6 -17 3 -23 -8 -23 -9 0 -16 9 -16 20 0 14 -7 20
-21 20 -12 0 -23 -8 -26 -20 -3 -11 -12 -20 -19 -20 -18 0 -18 10 2 38 15 22
48 29 70 14z m158 -14 c9 -37 8 -38 -34 -38 -28 0 -40 4 -40 14 0 8 -3 21 -6
30 -5 13 1 16 34 16 33 0 41 -4 46 -22z m-315 -90 c-5 -18 -9 -34 -9 -35 0 -2
-19 -3 -41 -3 -38 0 -41 2 -35 23 3 12 6 28 6 35 0 8 16 12 44 12 l45 0 -10
-32z m179 7 c16 -34 15 -45 -2 -45 -8 0 -17 11 -20 25 -8 33 -56 37 -56 5 0
-19 -25 -38 -35 -28 -3 3 0 19 6 36 10 29 15 32 53 32 36 0 45 -4 54 -25z
m160 -7 c8 -33 8 -33 -31 -36 -46 -4 -43 -6 -52 36 -7 32 -7 32 34 32 37 0 41
-3 49 -32z m-358 -68 c0 -46 -12 -58 -56 -62 -48 -3 -50 1 -33 49 9 28 14 31
50 29 27 -1 39 -5 39 -16z m206 -16 c18 -43 18 -44 -6 -44 -15 0 -20 7 -20 26
0 23 -3 25 -32 22 -25 -2 -34 -8 -36 -25 -2 -15 -10 -23 -23 -23 -23 0 -23 1
-5 44 13 30 17 33 61 34 44 0 48 -2 61 -34z m180 -3 c8 -18 14 -35 14 -38 0
-2 -21 -3 -47 -1 -42 3 -47 6 -54 32 -10 38 -8 41 36 41 32 0 39 -4 51 -34z
m-516 -156 c0 -96 -5 -115 -31 -115 -17 0 -19 9 -19 99 0 71 4 101 13 104 30
10 37 -5 37 -88z m-110 -15 l0 -100 -25 0 -25 0 0 100 0 100 25 0 25 0 0 -100z
m210 0 l0 -100 -25 0 -25 0 0 100 0 100 25 0 25 0 0 -100z m288 -2 c-3 -95 -4
-103 -23 -103 -18 0 -20 8 -25 85 l-5 85 -57 3 -58 3 0 -85 c0 -84 -7 -100
-37 -88 -9 3 -13 33 -13 103 l0 99 110 0 111 0 -3 -102z m122 2 c0 -93 -1
-100 -20 -100 -19 0 -20 7 -20 100 0 93 1 100 20 100 19 0 20 -7 20 -100z
m110 0 l0 -100 -25 0 -25 0 0 100 0 100 25 0 25 0 0 -100z m100 0 c0 -93 -1
-100 -20 -100 -19 0 -20 7 -20 100 0 93 1 100 20 100 19 0 20 -7 20 -100z
m1070 -517 l0 -243 -37 -1 c-276 -7 -266 -8 -301 19 -18 14 -54 31 -80 37 -68
17 -74 41 -38 148 26 79 27 86 12 114 -9 18 -29 35 -47 42 -55 19 -74 14 -92
-24 l-16 -34 34 -7 c20 -3 38 -10 41 -15 3 -5 -8 -33 -25 -63 -46 -80 -61
-130 -51 -166 5 -16 6 -30 2 -31 -55 -4 -85 -10 -101 -18 -11 -6 -22 -11 -25
-11 -10 0 7 76 26 118 11 23 18 48 15 56 -10 25 -198 37 -240 14 -14 -7 -26
-6 -43 3 -19 10 -29 10 -48 0 -17 -9 -29 -10 -43 -3 -22 12 -129 16 -191 6
-48 -7 -62 -26 -42 -57 7 -12 19 -46 26 -77 11 -46 11 -57 -1 -69 -11 -11 -20
-11 -46 -2 -18 6 -48 8 -67 5 -33 -6 -35 -6 -28 17 17 57 19 101 5 110 -27 17
-151 -22 -180 -57 -6 -8 -25 -14 -41 -14 -32 0 -87 -25 -104 -48 -8 -10 -13
-12 -18 -4 -4 7 -16 8 -29 4 -27 -9 -68 -8 -124 3 l-43 8 0 241 0 241 970 0
970 0 0 -242z m-501 96 c39 -14 49 -47 31 -108 -7 -25 -17 -63 -23 -83 -18
-64 -3 -88 73 -115 36 -12 73 -32 82 -44 20 -23 23 -39 9 -39 -5 0 -23 -12
-38 -27 -16 -16 -45 -40 -64 -55 -33 -26 -33 -27 -14 -41 17 -13 23 -13 48 -1
27 14 67 11 67 -5 0 -8 -28 -24 -75 -40 -27 -10 -26 -11 18 -7 35 3 46 1 38
-7 -6 -6 -40 -12 -75 -13 -76 -2 -128 -23 -58 -24 36 0 42 -3 42 -21 0 -14 5
-19 18 -17 9 2 16 10 14 16 -2 13 32 15 91 6 30 -5 35 -9 26 -20 -9 -12 -1
-14 52 -14 71 0 71 1 -28 56 -29 16 -53 34 -53 40 0 23 92 154 108 154 22 -1
90 -33 121 -58 23 -18 23 -20 7 -44 -9 -15 -35 -38 -56 -52 -38 -25 -52 -46
-31 -46 22 0 78 41 95 71 16 28 20 29 33 16 14 -14 10 -22 -38 -81 -51 -61
-57 -66 -104 -71 -50 -7 -230 -1 -295 8 -18 3 -40 13 -47 23 -7 9 -30 25 -53
35 -22 10 -40 23 -40 29 0 5 -11 10 -25 10 -14 0 -25 6 -25 13 0 16 88 21 106
7 11 -10 54 -2 54 10 0 4 -7 11 -15 14 -9 3 -15 15 -13 28 3 34 -22 116 -38
122 -22 9 -17 28 6 21 24 -8 24 -6 5 31 -24 46 -18 89 25 174 22 43 37 86 34
94 -3 8 -19 19 -36 25 -26 9 -29 13 -18 26 15 18 18 18 59 4z m-622 -201 c16
-17 22 -40 25 -90 4 -64 3 -67 -14 -51 -15 13 -58 130 -58 157 0 14 28 5 47
-16z m78 1 c3 -4 -1 -23 -9 -41 l-14 -33 -1 32 c-1 17 -5 35 -11 38 -5 3 -10
10 -10 15 0 10 38 1 45 -11z m147 -1 c-7 -7 -12 -30 -13 -52 0 -43 -8 -34 -23
27 -5 23 -3 29 16 36 27 10 36 5 20 -11z m83 5 c-3 -10 -11 -40 -17 -66 -5
-26 -21 -60 -35 -75 l-25 -27 6 25 c3 14 6 46 6 73 0 34 6 53 20 67 25 25 55
27 45 3z m-388 -5 c6 -7 16 -37 23 -67 8 -32 25 -67 44 -89 l31 -35 -35 6
c-47 9 -86 54 -95 108 -4 24 -13 54 -21 67 -14 21 -13 22 15 22 15 0 33 -6 38
-12z m236 -25 c24 -62 29 -101 17 -137 -28 -85 -101 -31 -86 63 7 47 33 111
45 111 5 0 16 -17 24 -37z m249 24 c-6 -7 -18 -39 -26 -71 -9 -32 -21 -65 -28
-73 -15 -19 -63 -43 -84 -43 -15 0 -15 3 4 23 24 25 52 87 52 114 0 34 29 63
62 63 24 0 28 -3 20 -13z m-737 -104 c-15 -62 -36 -93 -64 -93 -18 0 -22 -3
-12 -9 17 -11 -3 -25 -24 -17 -9 3 -15 0 -15 -8 0 -12 -41 -26 -78 -26 -12 0
-9 5 8 17 14 9 28 21 31 26 4 5 12 6 19 2 9 -5 10 -2 5 14 -7 22 9 30 19 9 3
-7 3 1 1 18 -7 36 14 59 72 80 21 7 40 13 42 14 2 0 0 -12 -4 -27z m1315 -67
c0 -8 -9 -16 -20 -19 -22 -6 -27 12 -8 31 13 13 28 7 28 -12z m102 3 c19 -10
19 -11 -7 -25 -28 -14 -65 -19 -65 -8 0 5 41 43 48 44 2 0 12 -5 24 -11z
m-1153 -28 c20 -10 29 -21 23 -25 -14 -8 -94 23 -86 35 8 13 25 10 63 -10z
m465 10 c5 -8 -62 -41 -84 -41 -21 0 -9 17 23 33 37 18 54 21 61 8z m-1174
-21 c12 -8 9 -10 -12 -10 -16 0 -28 5 -28 10 0 13 20 13 40 0z m600 -20 c0 -5
-25 -10 -55 -10 -30 0 -55 5 -55 10 0 6 25 10 55 10 30 0 55 -4 55 -10z m206
-5 c-21 -16 -32 -13 -21 4 3 6 14 11 23 11 15 -1 15 -2 -2 -15z m224 5 c8 -5
12 -11 9 -14 -3 -3 -14 1 -25 9 -21 16 -8 20 16 5z m283 0 c10 0 15 -4 12 -10
-3 -5 -28 -10 -56 -10 -38 0 -49 4 -49 16 0 12 8 15 38 10 20 -3 45 -5 55 -6z
m248 -43 c-5 -7 -22 -14 -36 -15 -14 -1 -35 -7 -46 -12 -38 -21 -17 6 34 43
49 36 52 37 55 17 2 -12 -1 -27 -7 -33z m-681 11 c0 -25 -3 -29 -10 -18 -13
20 -13 50 0 50 6 0 10 -15 10 -32z m80 12 c0 -11 -10 -30 -22 -42 l-23 -23 -3
28 c-5 40 4 57 28 57 13 0 20 -7 20 -20z m939 11 c9 -6 11 -16 7 -27 -7 -18
-8 -18 -22 0 -23 32 -16 46 15 27z m-1864 -11 c-3 -5 -10 -10 -16 -10 -5 0 -9
5 -9 10 0 6 7 10 16 10 8 0 12 -4 9 -10z m1175 -9 c0 -12 -58 -28 -71 -20 -11
6 -11 9 1 13 46 14 70 17 70 7z m-387 -22 c-6 -6 -19 -9 -29 -6 -17 3 -16 5 6
14 28 12 39 8 23 -8z m213 -1 c4 -5 -4 -8 -17 -6 -12 1 -24 8 -26 15 -5 14 34
6 43 -9z m-506 3 c0 -10 -59 -21 -77 -14 -7 3 -10 9 -7 14 7 12 84 12 84 0z
m809 0 c8 -5 9 -11 3 -15 -13 -8 -72 4 -72 15 0 11 51 11 69 0z m-1309 -21 c0
-5 -11 -10 -25 -10 -14 0 -25 5 -25 10 0 6 11 10 25 10 14 0 25 -4 25 -10z
m1230 -7 c0 -6 -74 -33 -90 -33 -17 0 -44 23 -36 31 5 4 126 6 126 2z m-580
-19 c0 -13 -18 -15 -145 -12 -98 2 -148 7 -157 16 -10 9 19 12 145 12 136 0
157 -2 157 -16z m-540 -13 c0 -19 -8 -22 -113 -38 -43 -6 -69 9 -50 28 8 8 17
8 31 0 16 -9 31 -7 69 8 60 25 63 25 63 2z m-697 -34 c31 -12 57 -26 57 -32
-1 -5 -13 -34 -29 -64 l-28 -53 -46 82 c-51 90 -56 105 -29 96 9 -4 43 -17 75
-29z m1421 18 c18 -12 33 -13 74 -5 29 5 61 6 72 2 l21 -8 -21 -22 c-25 -26
-94 -30 -124 -7 -13 10 -43 15 -82 15 -61 0 -82 9 -69 30 10 15 103 12 129 -5z
m-378 -24 c-7 -11 -91 -22 -111 -15 -34 13 -11 24 51 24 36 0 63 -4 60 -9z
m709 -1 c-3 -5 -28 -10 -56 -10 -27 0 -49 5 -49 10 0 6 25 10 56 10 34 0 53
-4 49 -10z m1285 5 c0 -12 -82 -155 -89 -155 -12 0 -55 99 -47 107 7 7 112 49
129 52 4 0 7 -1 7 -4z m-2207 -11 c20 -4 37 -11 37 -16 0 -6 -11 -7 -24 -4
-32 8 -43 -10 -15 -25 15 -7 47 -9 93 -5 71 6 111 -4 91 -23 -12 -11 -220 -19
-231 -9 -3 4 -15 3 -25 -3 -12 -6 -19 -6 -19 0 0 5 6 11 13 14 8 3 3 11 -13
24 -21 18 -22 23 -11 37 14 17 43 20 104 10z m1607 -15 c0 -23 -22 -49 -40
-49 -26 0 -25 8 2 37 23 25 38 30 38 12z m-1153 -14 c-4 -11 -139 -19 -174
-10 -51 13 -17 22 77 21 62 -1 99 -5 97 -11z m555 -1 c33 -6 36 -8 27 -28 -9
-20 -17 -21 -96 -20 -67 1 -87 4 -95 17 -4 9 -15 14 -23 11 -8 -3 -24 1 -37
10 -21 15 -16 16 82 16 58 0 122 -3 142 -6z m-1692 -15 c0 -10 -127 -287 -136
-298 -4 -5 -114 42 -114 49 0 3 29 17 65 30 53 20 67 29 71 50 3 14 22 60 42
103 25 54 41 77 54 77 10 0 18 -5 18 -11z m1450 -18 c0 -11 -29 -18 -112 -27
-82 -8 -93 8 -15 23 68 14 127 15 127 4z m1285 -78 c22 -47 32 -81 27 -90 -6
-10 -21 13 -49 76 -38 82 -44 109 -22 95 5 -3 25 -39 44 -81z m-2655 72 c0 -2
-27 -62 -61 -132 -33 -70 -65 -138 -70 -151 -8 -21 -27 -27 -32 -10 -5 15 137
298 149 298 8 0 14 -2 14 -5z m905 -10 c-50 -23 -104 -17 -78 8 3 4 29 7 57 6
l51 -1 -30 -13z m210 6 c-11 -9 -94 -31 -119 -31 -9 0 -16 6 -16 14 0 10 13
16 38 19 73 7 106 7 97 -2z m1496 -157 c49 -102 67 -150 60 -157 -6 -6 -13 -9
-15 -6 -8 8 -136 290 -136 299 0 6 5 10 11 10 6 0 42 -66 80 -146z m-2529 130
c10 -10 -39 -106 -66 -128 -13 -12 -39 -47 -56 -78 -18 -32 -34 -58 -37 -58
-2 0 -2 3 0 8 2 4 30 64 63 134 55 119 75 144 96 122z m2456 -164 c39 -83 67
-148 62 -145 -9 5 -135 206 -159 253 -13 24 -7 42 13 42 7 0 45 -68 84 -150z
m-2368 130 c12 -8 11 -15 -8 -54 -17 -37 -27 -46 -48 -46 -14 0 -24 4 -22 8 2
4 12 29 23 55 20 48 29 54 55 37z m2218 -35 c16 -34 15 -45 -1 -45 -16 0 -40
47 -32 61 10 16 21 10 33 -16z m-2110 -3 c9 -6 10 -16 1 -40 -9 -28 -16 -32
-45 -32 -40 0 -39 -1 -17 45 16 34 35 43 61 27z m2033 -28 c5 -15 8 -28 7 -29
-2 -1 -25 -7 -52 -14 -40 -10 -51 -10 -57 1 -16 25 -9 36 34 51 57 21 56 21
68 -9z m192 -194 c42 -66 77 -124 77 -128 0 -5 -44 -24 -97 -44 -724 -266
-1582 -286 -2367 -56 -94 28 -179 52 -188 55 -10 3 -18 10 -18 15 0 11 108
209 130 238 l16 21 179 -45 c305 -76 564 -106 925 -106 239 0 367 8 590 36
132 16 466 81 585 113 39 11 75 20 81 20 5 1 45 -53 87 -119z m265 93 c23 -8
42 -18 42 -22 0 -6 -63 -41 -74 -41 -5 0 -46 78 -46 86 0 4 8 3 18 -1 9 -4 36
-14 60 -22z"/>
<path d="M1985 2481 l-30 -6 0 -125 0 -125 55 -2 c230 -7 282 -6 291 8 14 22
11 236 -3 245 -15 10 -270 13 -313 5z m120 -51 c4 -6 -17 -10 -55 -10 -38 0
-59 4 -55 10 3 6 28 10 55 10 27 0 52 -4 55 -10z m160 0 c4 -6 -17 -10 -57
-10 -44 0 -59 3 -48 10 20 13 97 13 105 0z m-165 -28 c0 -4 -25 -8 -55 -8 -30
-1 -52 3 -49 7 7 11 104 12 104 1z m164 0 c3 -5 -22 -9 -56 -9 -39 -1 -56 2
-47 8 18 11 96 12 103 1z m-181 -29 c-18 -2 -48 -2 -65 0 -18 2 -4 4 32 4 36
0 50 -2 33 -4z m160 0 c-18 -2 -48 -2 -65 0 -18 2 -4 4 32 4 36 0 50 -2 33 -4z
m-138 -23 c4 -6 -17 -10 -55 -10 -38 0 -59 4 -55 10 3 6 28 10 55 10 27 0 52
-4 55 -10z m160 0 c4 -6 -17 -10 -55 -10 -38 0 -59 4 -55 10 3 6 28 10 55 10
27 0 52 -4 55 -10z m-165 -33 c-6 -11 -110 -17 -110 -6 0 13 23 18 70 16 25
-1 43 -6 40 -10z m154 7 c32 -12 15 -19 -44 -19 -57 0 -75 7 -47 18 18 8 73 8
91 1z"/>
<path d="M2562 2400 c-34 -17 -62 -34 -62 -39 0 -4 -26 -25 -57 -46 -32 -21
-62 -44 -68 -50 -29 -32 -244 -184 -270 -191 -84 -20 -147 -75 -160 -141 -6
-34 -4 -40 28 -70 116 -106 276 -32 277 128 0 45 2 47 78 110 42 36 83 69 91
73 17 11 31 -10 31 -45 0 -38 22 -51 94 -54 71 -4 99 11 80 43 -5 9 -8 33 -6
52 3 35 4 36 38 32 41 -5 77 16 104 61 24 39 25 68 5 107 -34 65 -108 76 -203
30z m143 -2 c14 -6 25 -15 25 -20 0 -5 -5 -6 -10 -3 -6 3 -22 13 -38 21 -32
17 -14 19 23 2z m-195 -67 c0 -5 -103 -88 -228 -184 -153 -118 -238 -176 -258
-179 -19 -2 -29 -9 -29 -20 0 -10 -8 -25 -17 -35 -17 -16 -17 -15 -8 16 19 67
64 106 144 125 26 6 138 87 321 229 80 63 75 60 75 48z m138 -14 c2 -10 -3
-17 -11 -17 -22 0 -47 -34 -41 -56 5 -18 1 -19 -38 -16 -24 2 -47 8 -52 12
-10 9 113 102 129 97 5 -2 11 -11 13 -20z m-114 -15 c-101 -89 -315 -262 -323
-262 -6 0 -11 -15 -11 -32 0 -79 -64 -138 -150 -138 -90 0 -87 4 155 190 87
67 273 212 300 234 17 13 32 22 34 20 3 -2 0 -8 -5 -12z m-34 -85 c0 -2 -10
-12 -22 -23 l-23 -19 19 23 c18 21 26 27 26 19z m51 -74 c13 -16 12 -17 -3 -4
-17 13 -22 21 -14 21 2 0 10 -8 17 -17z m-371 -247 c0 -2 -8 -10 -17 -17 -16
-13 -17 -12 -4 4 13 16 21 21 21 13z m-75 -46 c-3 -5 -12 -10 -18 -10 -7 0 -6
4 3 10 19 12 23 12 15 0z"/>
<path d="M2045 1910 c-4 -7 -3 -16 3 -22 14 -14 45 -2 40 15 -6 16 -34 21 -43
7z"/>
<path d="M2330 1136 c0 -9 5 -16 10 -16 6 0 10 4 10 9 0 6 -4 13 -10 16 -5 3
-10 -1 -10 -9z"/>
<path d="M2370 1111 c0 -5 5 -13 10 -16 6 -3 10 -2 10 4 0 5 -4 13 -10 16 -5
3 -10 2 -10 -4z"/>
<path d="M2583 1033 c-4 -10 -19 -34 -35 -53 -18 -22 -24 -38 -18 -44 18 -18
80 64 80 105 0 16 -20 10 -27 -8z"/>
<path d="M2632 979 c-26 -48 -26 -49 -8 -49 8 0 25 14 37 31 19 27 20 33 7 45
-12 12 -17 9 -36 -27z"/>
<path d="M2877 554 c-8 -8 1 -24 14 -24 5 0 9 7 9 15 0 15 -12 20 -23 9z"/>
<path d="M2896 494 c-9 -8 -16 -30 -16 -49 0 -20 -6 -35 -15 -39 -12 -4 -15 3
-15 34 0 22 -4 40 -10 40 -5 0 -10 -23 -10 -51 0 -48 1 -50 23 -43 85 26 113
53 101 99 -7 29 -34 33 -58 9z m38 -19 c7 -20 -2 -42 -20 -49 -10 -4 -14 3
-14 23 0 40 22 57 34 26z"/>
<path d="M680 475 c-10 -12 -9 -20 5 -41 17 -27 17 -27 -6 -20 -13 5 -37 10
-52 13 -24 5 -28 2 -25 -13 8 -42 122 -89 159 -65 33 20 49 13 49 -19 0 -16 5
-30 10 -30 6 0 10 32 10 76 0 47 -4 73 -10 69 -5 -3 -10 -19 -10 -36 0 -19 -5
-29 -15 -29 -8 0 -15 9 -15 21 0 31 -17 57 -50 74 -36 18 -35 18 -50 0z m35
-35 c-5 -8 -11 -8 -17 -2 -6 6 -7 16 -3 22 5 8 11 8 17 2 6 -6 7 -16 3 -22z
m43 -25 c3 -22 0 -27 -13 -21 -9 3 -21 6 -27 6 -6 0 -4 8 5 18 10 10 14 22 10
27 -5 4 -1 6 7 3 8 -2 16 -17 18 -33z m-72 -21 c64 -22 77 -34 33 -34 -30 0
-99 31 -99 45 0 8 14 6 66 -11z"/>
<path d="M931 463 c-5 -10 -11 -22 -13 -28 -1 -5 -14 -10 -28 -10 -22 0 -25
-5 -28 -42 -2 -26 1 -43 7 -43 6 0 11 16 11 35 0 19 5 35 10 35 6 0 10 -18 10
-39 0 -22 5 -43 10 -46 6 -4 10 10 10 34 0 28 4 41 14 41 18 0 26 -33 17 -68
-7 -24 -12 -27 -51 -27 -46 0 -60 -14 -35 -35 13 -11 14 -10 9 5 -6 16 -3 17
30 11 24 -5 43 -3 52 5 19 16 19 103 -1 119 -8 7 -15 21 -15 32 0 14 6 19 23
16 20 -3 22 -9 25 -73 4 -95 22 -110 22 -19 0 76 -17 114 -50 114 -11 0 -24
-8 -29 -17z"/>
<path d="M2525 456 c-14 -14 -22 -31 -19 -40 3 -9 -3 -19 -16 -26 -11 -6 -18
-15 -15 -20 4 -6 -1 -19 -9 -31 -8 -12 -12 -28 -9 -35 5 -15 41 -19 58 -6 18
12 46 62 35 62 -5 0 -10 7 -10 15 0 8 5 15 10 15 6 0 10 5 10 11 0 6 -7 8 -15
5 -22 -8 -31 22 -12 41 31 31 47 9 47 -67 0 -40 4 -70 10 -70 15 0 13 143 -2
158 -18 18 -36 15 -63 -12z m-5 -86 c0 -5 -4 -10 -10 -10 -5 0 -10 5 -10 10 0
6 5 10 10 10 6 0 10 -4 10 -10z m-15 -56 c-18 -13 -35 -10 -35 6 0 10 31 19
44 12 5 -3 1 -11 -9 -18z"/>
<path d="M2787 463 c-4 -3 -7 -24 -7 -45 0 -28 -4 -38 -16 -38 -9 0 -14 6 -11
13 8 24 -13 47 -44 47 -56 0 -101 -70 -64 -100 15 -12 27 -10 143 26 7 2 12
22 12 54 0 51 -1 55 -13 43z m-50 -59 c2 -7 0 -21 -6 -31 -10 -17 -10 -17 -11
0 0 26 -28 32 -50 12 -18 -16 -20 -16 -20 -2 0 37 74 55 87 21z m-37 -33 c0
-12 -20 -25 -27 -18 -7 7 6 27 18 27 5 0 9 -4 9 -9z"/>
<path d="M1277 414 c-8 -8 1 -24 14 -24 5 0 9 7 9 15 0 15 -12 20 -23 9z"/>
<path d="M2118 400 c-22 -13 -41 -74 -33 -102 17 -56 83 -80 105 -39 13 25 3
51 -21 51 -19 0 -43 -33 -32 -44 3 -3 1 -6 -5 -6 -29 0 -43 81 -19 114 12 17
14 16 25 -8 6 -14 16 -26 21 -26 17 0 42 32 37 47 -3 8 -6 17 -6 19 0 8 -55 3
-72 -6z m60 -22 c-6 -18 -28 -21 -28 -4 0 9 7 16 16 16 9 0 14 -5 12 -12z m0
-100 c-6 -18 -28 -21 -28 -4 0 9 7 16 16 16 9 0 14 -5 12 -12z"/>
<path d="M1058 379 c-35 -20 -7 -99 36 -99 24 0 39 26 26 49 -12 24 -30 27
-49 9 -10 -11 -12 -9 -9 7 2 11 12 21 24 23 31 4 56 -25 52 -62 -2 -26 1 -32
20 -34 17 -3 22 -10 22 -32 0 -16 5 -32 10 -35 6 -4 10 25 10 79 0 56 -4 86
-11 86 -7 0 -9 -10 -5 -24 7 -27 -1 -56 -15 -56 -5 0 -9 13 -9 28 0 48 -63 85
-102 61z m50 -67 c2 -7 -3 -12 -12 -12 -9 0 -16 7 -16 16 0 17 22 14 28 -4z"/>
<path d="M1810 374 c0 -17 22 -14 28 4 2 7 -3 12 -12 12 -9 0 -16 -7 -16 -16z"/>
<path d="M1230 311 l0 -49 51 -7 c31 -4 55 -3 61 3 17 17 12 63 -10 85 -17 17
-24 18 -36 8 -8 -7 -16 -27 -18 -44 -4 -47 -22 -39 -26 11 -4 58 -22 53 -22
-7z m100 -1 c4 -29 0 -40 -15 -40 -15 0 -22 50 -8 63 8 9 21 -3 23 -23z"/>
<path d="M2276 345 c-3 -9 -6 -30 -6 -46 0 -19 -5 -29 -15 -29 -11 0 -15 11
-15 40 0 22 -4 40 -10 40 -5 0 -10 -23 -10 -51 l0 -51 46 7 c26 3 53 9 60 12
19 7 29 52 17 72 -14 22 -59 26 -67 6z m49 -35 c0 -16 -6 -26 -17 -28 -14 -3
-18 3 -18 28 0 25 4 31 18 28 11 -2 17 -12 17 -28z"/>
<path d="M1549 321 c-20 -16 -22 -21 -10 -35 18 -22 56 -17 55 7 -3 25 20 15
24 -11 3 -21 0 -22 -72 -22 -41 0 -77 -4 -80 -9 -11 -17 6 -40 36 -50 47 -16
82 -13 112 10 30 23 61 22 61 -3 0 -9 4 -20 8 -24 4 -4 7 28 7 71 0 43 -3 75
-7 71 -4 -4 -8 -22 -8 -39 0 -42 -26 -43 -37 -1 -5 18 -18 35 -33 42 -32 15
-29 15 -56 -7z m26 -31 c-5 -8 -11 -8 -17 -2 -6 6 -7 16 -3 22 5 8 11 8 17 2
6 -6 7 -16 3 -22z m35 -59 c3 -1 -2 -6 -10 -11 -29 -19 -110 -10 -110 12 0 7
84 7 120 -1z"/>
<path d="M2038 298 c-3 -40 -5 -43 -33 -43 -27 0 -30 3 -30 34 0 19 -6 36 -12
38 -9 3 -13 -10 -13 -46 l0 -51 45 0 c43 0 45 -1 45 -30 0 -16 5 -30 10 -30 6
0 10 35 10 85 0 87 -16 119 -22 43z"/>
<path d="M1741 313 c-40 -27 -15 -98 32 -91 32 5 45 34 24 55 -14 15 -21 16
-37 5 -17 -10 -20 -10 -20 3 0 19 35 33 66 27 19 -3 22 -9 18 -31 -3 -15 1
-34 10 -46 16 -20 16 -20 31 0 10 12 13 30 9 47 -3 17 -1 28 5 28 6 0 11 -18
11 -40 0 -22 5 -40 10 -40 6 0 10 17 10 38 0 21 5 43 11 49 18 18 -154 15
-180 -4z m119 -48 c0 -8 -4 -15 -10 -15 -5 0 -10 7 -10 15 0 8 5 15 10 15 6 0
10 -7 10 -15z m-70 -11 c0 -9 -5 -14 -12 -12 -18 6 -21 28 -4 28 9 0 16 -7 16
-16z"/>
</g>
</svg>
